<svg id="Layer_1" data-name="Layer 1" xmlns="http://www.w3.org/2000/svg" viewBox="0 0 220.02 155.81"><defs><style>.cls-1{fill:#d4d4d4;}</style></defs><path class="cls-1" d="M1013.84,1116.75H798.09l77.78-82.53,17,14.87c2.89,2.52,5.92,4.89,8.62,7.6,3.12,3.15,5.69,3,8.93,0,8.24-7.49,16.73-14.71,25.59-22.45Z" transform="translate(-795.86 -960.94)"/><path class="cls-1" d="M801.87,960.94H1010l-104,91C871.52,1021.8,837.19,991.81,801.87,960.94Z" transform="translate(-795.86 -960.94)"/><path class="cls-1" d="M1015.88,1111.8c-25.75-27.29-50.82-53.88-76.2-80.79l76.2-66.58Z" transform="translate(-795.86 -960.94)"/><path class="cls-1" d="M795.86,964.28,872.19,1031l-76.33,81Z" transform="translate(-795.86 -960.94)"/></svg>