<svg id="Layer_1" data-name="Layer 1" xmlns="http://www.w3.org/2000/svg" viewBox="0 0 2560 400"><defs><style>.cls-1{fill:#0e0e0e;}.cls-2{fill:#d4d4d4;}</style></defs><rect class="cls-1" width="2560" height="400"/><path class="cls-2" d="M350.25,178.55l-6.88,7h-33.2V199h32.16l7.92,7.2v13.5l-7.92,6.9H302.25v-7h40.08V206.15H310.17l-7.92-7.2v-13.5l7.92-6.9Z"/><path class="cls-2" d="M439.17,226.55H399l-7.8-7v-34l7.8-7h40.2v7H399v34h40.2Z"/><path class="cls-2" d="M527.85,219.53l-7.92,7h-32l-7.92-7v-34l7.92-7h32l7.92,7Zm-7.92,0v-34h-32v34Z"/><path class="cls-2" d="M612.86,185.57h-36.3v41h-7.91v-65.1h7.91v17.1h36.3Z"/><path class="cls-2" d="M697.88,185.57h-36.3v41h-7.92v-65.1h7.92v17.1h36.3Z"/><path class="cls-2" d="M836.3,219.53l-7.92,7h-23.7v-7h23.7v-41h7.92Z"/><path class="cls-2" d="M925,219.53l-7.92,7H885l-7.92-7v-34l7.92-7h32l7.92,7Zm-7.92,0v-34H885v34Z"/><path class="cls-2" d="M1013.66,226.55h-7.92v-41h-32v41l-7.92-.12V185.57l7.92-7h32l7.92,7Z"/><path class="cls-2" d="M1102.58,206.15h-48.12v-7h48.12Zm0-20.58h-48l7.92-7h40.08Zm0,41H1062.5l-7.92-7h48Z"/><path class="cls-2" d="M1191.38,178.55l-6.88,7h-41.12v-7Zm0,41-7.92,7h-40.08v-7h40.08V206.15h-40.08v-7h40.08l7.92,7Z"/><path class="cls-2" d="M1346.3,226.55h-40.08l-7.92-7v-34l7.92-7h40.08v7h-40.08v13.56h40.08v7h-40.08v13.38h40.08Z"/><path class="cls-2" d="M1431.38,226.55H1395l-7.92-7v-41H1395v41h36.36Z"/><path class="cls-2" d="M1520.3,206.15h-48.12v-7h48.12Zm0-20.58h-48l7.92-7h40.08Zm0,41h-40.08l-7.92-7h48Z"/><path class="cls-2" d="M1609.1,226.55h-40.2l-7.8-7v-34l7.8-7h40.2v7h-40.2v34h40.2Z"/><path class="cls-2" d="M1694.12,185.57h-36.3v41h-7.92v-65.1h7.92v17.1h36.3Z"/><path class="cls-2" d="M1783.16,202.43l-7.92,7h-20l23.28,17.1h-10.81L1735,202.43h40.2V185.57h-40.32v-7h40.32l7.92,7Z"/><path class="cls-2" d="M1871.84,219.53l-7.92,7h-32l-7.92-7v-34l7.92-7h32l7.92,7Zm-7.92,0v-34h-32v34Z"/><path class="cls-2" d="M1960.52,226.55h-7.92v-41h-32v41l-7.92-.12V185.57l7.92-7h32l7.92,7Z"/><path class="cls-2" d="M2009.24,173.21h-7.92v-7.92h7.92Zm17.58,53.34h-17.58l-7.92-7v-41h7.92v41h17.58Z"/><path class="cls-2" d="M2115.61,226.55h-40.19l-7.81-7v-34l7.81-7h40.19v7h-40.19v34h40.19Z"/><path class="cls-2" d="M2220.92,226.55h-10l-23.7-33.69-23.67,33.69h-10l33.72-48Z"/></svg>