<?xml version="1.0" standalone="no"?>
<!DOCTYPE svg PUBLIC "-//W3C//DTD SVG 20010904//EN"
 "http://www.w3.org/TR/2001/REC-SVG-20010904/DTD/svg10.dtd">
<svg version="1.0" xmlns="http://www.w3.org/2000/svg"
 width="203.000000pt" height="203.000000pt" viewBox="0 0 203.000000 203.000000"
 preserveAspectRatio="xMidYMid meet">
<metadata>
Created by potrace 1.11, written by Peter Selinger 2001-2013
</metadata>
<g transform="translate(0.000000,203.000000) scale(0.100000,-0.100000)"
fill="#000000" stroke="none">
<path d="M84 2016 c-17 -8 -40 -26 -52 -41 l-22 -28 0 -924 c0 -1014 -3 -965
60 -998 25 -13 146 -15 948 -15 l919 0 34 23 c21 14 39 37 47 61 10 30 12 234
10 942 -3 895 -3 903 -24 931 -11 15 -36 36 -55 45 -32 17 -96 18 -934 18
-731 -1 -906 -3 -931 -14z m976 -986 c0 -57 1 -60 25 -60 24 0 25 -2 25 -65
l0 -65 -55 0 -55 0 0 60 0 60 -60 0 -60 0 0 -125 0 -125 115 0 115 0 0 -65 0
-65 30 0 30 0 0 -130 0 -130 -25 0 c-23 0 -24 -4 -27 -63 l-3 -62 -147 -3
-148 -3 0 66 0 65 -30 0 -31 0 3 63 3 62 58 3 57 3 0 -66 0 -66 88 3 87 3 3
123 3 122 -121 0 -120 0 0 65 0 65 -30 0 -30 0 0 130 0 130 30 0 30 0 0 65 0
65 120 0 120 0 0 -60z m730 -325 l0 -385 -30 0 -30 0 0 -65 0 -65 -145 0 -145
0 0 65 0 65 -30 0 -30 0 0 65 0 66 58 -3 57 -3 3 -62 3 -63 84 0 85 0 0 385 0
385 60 0 60 0 0 -385z"/>
</g>
</svg>
